<svg width="86" height="13" viewBox="0 0 86 13" fill="none" xmlns="http://www.w3.org/2000/svg">
<path d="M0.569981 10V0.757812H3.80729C4.9287 0.757812 5.77929 0.973633 6.35904 1.40527C6.9388 1.83268 7.22867 2.4611 7.22867 3.29053C7.22867 3.74333 7.1123 4.14323 6.87955 4.49023C6.6468 4.83301 6.32307 5.0848 5.90836 5.24561C6.38232 5.3641 6.75471 5.60319 7.02555 5.96289C7.30061 6.32259 7.43814 6.7627 7.43814 7.2832C7.43814 8.17188 7.15462 8.84473 6.58756 9.30176C6.0205 9.75879 5.21223 9.99154 4.16275 10H0.569981ZM2.47428 5.97559V8.47021H4.10563C4.55419 8.47021 4.90331 8.36442 5.15299 8.15283C5.40689 7.93701 5.53385 7.64079 5.53385 7.26416C5.53385 6.41781 5.09586 5.98828 4.21988 5.97559H2.47428ZM2.47428 4.62988H3.88346C4.84407 4.61296 5.32438 4.22998 5.32438 3.48096C5.32438 3.06201 5.20165 2.76156 4.95621 2.57959C4.715 2.39339 4.33202 2.30029 3.80729 2.30029H2.47428V4.62988ZM13.0015 4.85205C12.7518 4.8182 12.5318 4.80127 12.3413 4.80127C11.6473 4.80127 11.1924 5.03613 10.9766 5.50586V10H9.14211V3.13184H10.875L10.9258 3.95068C11.294 3.32015 11.8039 3.00488 12.4556 3.00488C12.6587 3.00488 12.8491 3.03239 13.0269 3.0874L13.0015 4.85205ZM18.0697 10C17.9851 9.83496 17.9237 9.62972 17.8856 9.38428C17.4413 9.87939 16.8637 10.127 16.1527 10.127C15.4799 10.127 14.9213 9.93229 14.4769 9.54297C14.0368 9.15365 13.8168 8.66276 13.8168 8.07031C13.8168 7.34245 14.0855 6.78385 14.6229 6.39453C15.1646 6.00521 15.9454 5.80843 16.9652 5.8042H17.8095V5.41064C17.8095 5.09326 17.7269 4.83936 17.5619 4.64893C17.4011 4.4585 17.1451 4.36328 16.7938 4.36328C16.4849 4.36328 16.2416 4.43734 16.0638 4.58545C15.8903 4.73356 15.8036 4.93669 15.8036 5.19482H13.9691C13.9691 4.79704 14.0918 4.42887 14.3373 4.09033C14.5827 3.75179 14.9297 3.4873 15.3783 3.29688C15.8269 3.10221 16.3305 3.00488 16.889 3.00488C17.7354 3.00488 18.4061 3.21859 18.9013 3.646C19.4006 4.06917 19.6503 4.66585 19.6503 5.43604V8.41309C19.6545 9.06478 19.7455 9.55778 19.9232 9.89209V10H18.0697ZM16.5526 8.72412C16.8235 8.72412 17.0731 8.66488 17.3016 8.54639C17.5302 8.42367 17.6994 8.26074 17.8095 8.05762V6.87695H17.1239C16.2056 6.87695 15.7168 7.19434 15.6576 7.8291L15.6513 7.93701C15.6513 8.16553 15.7317 8.35384 15.8925 8.50195C16.0533 8.65007 16.2733 8.72412 16.5526 8.72412ZM21.1638 6.51514C21.1638 5.4445 21.4029 4.5918 21.8811 3.95703C22.3635 3.32227 23.0216 3.00488 23.8552 3.00488C24.5238 3.00488 25.0761 3.25456 25.512 3.75391V0.25H27.3528V10H25.696L25.6072 9.27002C25.1501 9.84131 24.5619 10.127 23.8425 10.127C23.0343 10.127 22.3847 9.80957 21.8938 9.1748C21.4071 8.53581 21.1638 7.64925 21.1638 6.51514ZM22.9983 6.64844C22.9983 7.29167 23.1104 7.78467 23.3347 8.12744C23.559 8.47021 23.8848 8.6416 24.3122 8.6416C24.8793 8.6416 25.2792 8.40251 25.512 7.92432V5.21387C25.2834 4.73568 24.8878 4.49658 24.3249 4.49658C23.4405 4.49658 22.9983 5.21387 22.9983 6.64844ZM31.1007 10H29.2599V0.25H31.1007V10ZM36.1689 10.127C35.1617 10.127 34.3408 9.81803 33.706 9.2002C33.0755 8.58236 32.7602 7.75928 32.7602 6.73096V6.55322C32.7602 5.86344 32.8935 5.24772 33.1601 4.70605C33.4267 4.16016 33.8033 3.74121 34.29 3.44922C34.7809 3.15299 35.3395 3.00488 35.9658 3.00488C36.9052 3.00488 37.6437 3.30111 38.1811 3.89355C38.7228 4.486 38.9936 5.32601 38.9936 6.41357V7.1626H34.6201C34.6793 7.61117 34.8571 7.97087 35.1533 8.2417C35.4537 8.51253 35.8325 8.64795 36.2895 8.64795C36.9962 8.64795 37.5485 8.39193 37.9463 7.87988L38.8476 8.88916C38.5726 9.27848 38.2002 9.58317 37.7304 9.80322C37.2607 10.019 36.7402 10.127 36.1689 10.127ZM35.9594 4.49023C35.5955 4.49023 35.2993 4.61296 35.0708 4.8584C34.8465 5.10384 34.7026 5.45508 34.6391 5.91211H37.1909V5.76611C37.1824 5.35986 37.0724 5.04671 36.8608 4.82666C36.6492 4.60238 36.3488 4.49023 35.9594 4.49023ZM42.9066 7.40381L44.1761 3.13184H46.1439L43.3826 11.0664L43.2303 11.4282C42.8198 12.3254 42.1427 12.7739 41.199 12.7739C40.9324 12.7739 40.6616 12.7337 40.3865 12.6533V11.2632L40.6658 11.2695C41.0128 11.2695 41.271 11.2166 41.4403 11.1108C41.6138 11.005 41.7492 10.8294 41.8465 10.584L42.0623 10.019L39.6566 3.13184H41.6307L42.9066 7.40381ZM56.2232 8.0957H52.8843L52.2495 10H50.2246L53.6651 0.757812H55.4297L58.8892 10H56.8643L56.2232 8.0957ZM53.3985 6.55322H55.709L54.5474 3.09375L53.3985 6.55322ZM62.8783 8.64795C63.2169 8.64795 63.4919 8.55485 63.7035 8.36865C63.9151 8.18245 64.0251 7.9349 64.0336 7.62598H65.7538C65.7496 8.09147 65.6226 8.51888 65.3729 8.9082C65.1233 9.29329 64.7805 9.59375 64.3446 9.80957C63.913 10.0212 63.4348 10.127 62.9101 10.127C61.9283 10.127 61.1539 9.81592 60.5868 9.19385C60.0198 8.56755 59.7362 7.70426 59.7362 6.604V6.4834C59.7362 5.42546 60.0176 4.58122 60.5805 3.95068C61.1433 3.32015 61.9156 3.00488 62.8974 3.00488C63.7564 3.00488 64.4441 3.25033 64.9604 3.74121C65.4809 4.22786 65.7453 4.87744 65.7538 5.68994H64.0336C64.0251 5.33447 63.9151 5.04671 63.7035 4.82666C63.4919 4.60238 63.2126 4.49023 62.8656 4.49023C62.4382 4.49023 62.1145 4.64681 61.8944 4.95996C61.6786 5.26888 61.5707 5.77246 61.5707 6.4707V6.66113C61.5707 7.36784 61.6786 7.87565 61.8944 8.18457C62.1103 8.49349 62.4382 8.64795 62.8783 8.64795ZM69.6858 7.24512L69.0257 7.90527V10H67.1912V0.25H69.0257V5.65186L69.3811 5.19482L71.1394 3.13184H73.3421L70.8601 5.99463L73.5579 10H71.4505L69.6858 7.24512ZM77.5597 10.127C76.5525 10.127 75.7316 9.81803 75.0968 9.2002C74.4663 8.58236 74.151 7.75928 74.151 6.73096V6.55322C74.151 5.86344 74.2843 5.24772 74.5509 4.70605C74.8175 4.16016 75.1941 3.74121 75.6808 3.44922C76.1717 3.15299 76.7303 3.00488 77.3566 3.00488C78.296 3.00488 79.0345 3.30111 79.5719 3.89355C80.1136 4.486 80.3844 5.32601 80.3844 6.41357V7.1626H76.0109C76.0701 7.61117 76.2478 7.97087 76.5441 8.2417C76.8445 8.51253 77.2233 8.64795 77.6803 8.64795C78.387 8.64795 78.9392 8.39193 79.337 7.87988L80.2384 8.88916C79.9633 9.27848 79.5909 9.58317 79.1212 9.80322C78.6515 10.019 78.131 10.127 77.5597 10.127ZM77.3502 4.49023C76.9863 4.49023 76.6901 4.61296 76.4615 4.8584C76.2373 5.10384 76.0934 5.45508 76.0299 5.91211H78.5817V5.76611C78.5732 5.35986 78.4632 5.04671 78.2516 4.82666C78.04 4.60238 77.7395 4.49023 77.3502 4.49023ZM85.6811 4.85205C85.4315 4.8182 85.2114 4.80127 85.021 4.80127C84.327 4.80127 83.8721 5.03613 83.6562 5.50586V10H81.8218V3.13184H83.5547L83.6055 3.95068C83.9736 3.32015 84.4835 3.00488 85.1352 3.00488C85.3384 3.00488 85.5288 3.03239 85.7065 3.0874L85.6811 4.85205Z" fill="#FE4703"/>
</svg>
